Patient4_TMGait_0pt2_03_left_12_EMG.mot
version=1
nRows=16
nColumns=33
inDegrees=no
endheader
time	1LAddLong	2LGlutMax	3LGlutMed	4LIliopsoas	5LSemiMemb	6LBicFemLong	7LRecFem	8LVastMed	9LVastLat	10LGasMed	11LTibAnt	12lTibPost	13LPeroneusLong	14LSol	15LExtDigLong	16LFlexDigLong	17RAddLong	18RGlutMax	19RGlutMed	20RIliopsoas	21RSemiMemb	22RBicFemLong	23RRecFem	24RVastMed	25RVastLat	26RGasMed	27RTibAnt	28RTibPost	29RPeroneusLong	30RSol	31RExtDigLong	32RFlexDigLong
25.265	0.001526	0.069885	0.059967	0.000763	-0.072021	0.016632	-0.15595	0.002747	0.011444	-0.006561	0.02243	-0.006714	0.007324	-0.032806	0.040283	0.003815	-0.033264	-0.12451	0.14496	-0.12741	0.072937	0.003357	-0.087433	-0.016022	-0.071259	0.037994	-0.014343	0.036621	0.21255	-0.10864	-0.011444	-0.010681
25.266	0.022125	-0.00351	0.023499	0.00061	-0.056305	-0.018616	-0.11108	-0.016327	-0.003967	-0.003662	-0.001373	-0.002136	0.013733	-0.029144	0.016022	-0.012512	-0.021667	-0.11993	0.11002	-0.16663	0.10544	-0.01358	0.066986	-0.045624	-0.085449	0.046387	-0.001831	-0.058746	0.098724	0.17838	-0.007935	-0.007935
25.267	0.039368	0.00885	-0.056152	0.001831	0.019226	-0.058136	-0.21072	0.01297	-0.029297	-0.002899	-0.023651	-0.011749	-0.016174	-0.021667	0.077362	0.004272	-0.009613	-0.12787	0.095367	-0.11169	0.069885	0.043182	0.083008	-0.042114	-0.090485	0.01709	-0.009003	-0.072327	-0.028229	0.093384	-0.00885	-0.012817
25.268	0.030212	0.053558	-0.1358	-0.00824	0.098877	-0.051575	-0.20096	0.026245	0.035095	0.009766	0.031281	-0.00061	-0.033875	-0.027618	0.11887	-0.003357	0.000458	-0.11765	-0.030365	-0.047607	0.12589	0.1474	-0.010834	-0.032043	-0.09964	-0.001831	0.002441	-0.42725	-0.12131	0.26566	-0.007935	-0.01236
25.269	0.020142	0.071106	-0.11963	-0.001221	0.049591	-0.008087	-0.094757	0.008392	0.087585	0.007629	0.014801	-0.00473	-0.035248	-0.034485	0.09079	-0.00824	0.009613	-0.14526	-0.04364	0.003967	0.20004	0.24246	-0.085297	0.083923	-0.041962	0.006714	0.019989	-0.22125	-0.22507	0.42969	-0.015869	-0.01236
25.27	0.010834	0.055542	0.12329	0.000763	0.036163	-0.005035	-0.00946	0.012817	0.15656	0.006714	0.043335	-0.001068	-0.005646	-0.040436	0.023041	-0.001526	0.00412	-0.17136	-0.050049	0.10757	-0.076752	0.20355	-0.024414	0.036469	-0.011139	0.001221	0.036926	0.2742	-0.17425	0.053864	-0.012207	-0.024567
25.271	0.006866	0.046234	0.20889	-0.014954	0.0177	-0.011597	-0.045319	0.018921	0.26062	0.016937	0.023041	0.002136	-0.000458	-0.024414	0.018158	-0.011749	0.023804	-0.14923	-0.10666	0.04715	-0.11917	-0.010223	0.080109	0.009918	0.024719	-0.002136	0.062103	0.22736	-0.24567	-0.27191	-0.007935	-0.026703
25.272	0.000458	0.062103	0.18478	0.003662	0.005951	0.023346	-0.039978	0.018158	0.46509	0.008087	0.001984	-0.007629	-0.009918	-0.024719	0.009308	0.001068	0.019073	-0.13748	-0.13443	-0.008545	0.032043	-0.15045	0.11475	-0.050659	0.020752	0.014648	0.060883	0.061798	-0.19287	-0.17685	-0.002289	-0.022888
25.273	-0.001526	0.049744	0.14954	0.005188	0.00351	-0.00885	-0.013885	0.007782	0.39368	-0.009918	0.021515	-0.000916	0.009003	-0.018921	-0.032654	-0.001678	0.021362	-0.1532	-0.10178	-0.025635	0.12116	-0.24719	0.12344	-0.010223	-0.011139	0.019989	0.07782	-0.019989	0.16281	-0.28961	-0.022583	-0.020142
25.274	0.005951	0.045166	0.13107	0.005798	-0.000763	0.038147	0.044403	-0.003662	0.27176	-0.007629	-0.062561	0.005951	-0.007172	-0.006714	-0.044861	-0.009155	0.025635	-0.15747	-0.022583	0.009003	0.13886	-0.27756	0.11963	-0.060272	-0.018463	0.02243	0.061493	-0.31021	0.45898	-0.35996	-0.014343	-0.014038
25.275	-0.000916	0.098114	0.10956	0.010223	-0.00885	0.070953	0.000153	-0.013885	0.14053	-0.00885	-0.10208	0.002594	0.007324	-0.011597	-0.02594	0.000763	0.0177	-0.1442	-0.080719	0.010376	-0.20935	-0.12482	-0.058289	-0.017548	0.003967	0.016174	0.00351	-0.30395	-0.54886	-0.19836	-0.016785	-0.012817
25.276	-0.000153	0.046387	0.064545	-0.007629	-0.022583	0.072174	-0.032043	-0.038757	0.03067	0.000763	0.016785	0.001221	-0.011292	0.011597	0.031586	-0.007629	0.006866	-0.12756	-0.098877	0.036011	-0.2005	-0.15533	-0.10956	0.068512	0.04425	0.008392	-0.10193	0.21637	-0.59006	-0.35645	-0.021667	-0.012665
25.277	-0.002899	0.027161	-0.056152	-0.010223	-0.033569	0.077057	0.040588	-0.018616	-0.051727	0.003662	0.086517	-0.012207	-0.12085	0.012817	0.16708	-0.000916	0.036926	-0.177	-0.075378	0.11765	-0.27435	-0.15457	-0.022888	0.065155	0.023804	-0.008545	-0.072937	0.18662	0.36835	-0.45731	-0.018768	-0.02243
25.278	-0.006256	-0.01236	-0.11154	0.014343	-0.063324	0.089264	0.057526	-0.002136	-0.48263	0.010681	0.15274	-0.009918	-0.15182	0.025787	0.16541	0.000916	0.03891	-0.21805	-0.1001	0.13565	-0.29785	-0.051727	0.036469	0.014954	0.003662	-0.016479	0.037842	0.037994	0.14847	-0.67017	-0.019379	-0.018463
25.279	-0.002289	-0.01709	-0.080261	0.01358	-0.030975	0.09552	-0.039368	0.016327	-0.59586	0.021057	0.069275	-0.006409	-0.047302	0.037689	0.21332	0.010529	0.027924	-0.16693	-0.06546	0.10315	0.092163	-0.049438	0.03891	0.041199	0.000916	-0.030365	-0.009308	-0.25375	-0.28839	-0.50156	-0.014801	-0.006104
25.28	-0.000916	0.031891	-0.15671	-0.009155	0.023651	0.11902	-0.057068	0.03067	-0.51148	-0.039368	-0.091095	-0.006256	0.12878	0.066223	-0.00412	0.005493	0.019836	-0.092773	-0.068665	0.1149	0.44617	-0.063019	0.033417	-0.023804	0.008545	-0.018616	-0.005188	-0.10788	-0.98984	0.271	-0.016785	-0.015564
